<svg id="visual" viewBox="0 0 900 450" width="900" height="450" xmlns="http://www.w3.org/2000/svg" xmlns:xlink="http://www.w3.org/1999/xlink" version="1.1">
  <g stroke-width="1" stroke-linejoin="bevel">
    <path d="M475 247L561 260L487 202Z" fill="#81cdf1" stroke="#81cdf1"></path>
    <path d="M561 260L578 172L487 202Z" fill="#6cb9ee" stroke="#6cb9ee"></path>
    <path d="M475 247L481 332L561 260Z" fill="#78c6f0" stroke="#78c6f0"></path>
    <path d="M380 183L423 298L475 247Z" fill="#7bc8f0" stroke="#7bc8f0"></path>
    <path d="M475 247L423 298L481 332Z" fill="#78c6f0" stroke="#78c6f0"></path>
    <path d="M461 85L380 183L487 202Z" fill="#78c6f0" stroke="#78c6f0"></path>
    <path d="M487 202L380 183L475 247Z" fill="#73c1ef" stroke="#73c1ef"></path>
    <path d="M603 399L667 270L561 260Z" fill="#71beef" stroke="#71beef"></path>
    <path d="M561 260L667 270L578 172Z" fill="#6ebcee" stroke="#6ebcee"></path>
    <path d="M380 183L390 322L423 298Z" fill="#6cb9ee" stroke="#6cb9ee"></path>
    <path d="M423 298L390 322L481 332Z" fill="#73c1ef" stroke="#73c1ef"></path>
    <path d="M578 172L461 85L487 202Z" fill="#81cdf1" stroke="#81cdf1"></path>
    <path d="M537 450L603 399L481 332Z" fill="#78c6f0" stroke="#78c6f0"></path>
    <path d="M481 332L603 399L561 260Z" fill="#76c3ef" stroke="#76c3ef"></path>
    <path d="M511 0L426 57L461 85Z" fill="#71beef" stroke="#71beef"></path>
    <path d="M461 85L426 57L380 183Z" fill="#76c3ef" stroke="#76c3ef"></path>
    <path d="M684 76L639 59L578 172Z" fill="#6ebcee" stroke="#6ebcee"></path>
    <path d="M578 172L639 59L461 85Z" fill="#6bb7ed" stroke="#6bb7ed"></path>
    <path d="M406 450L537 450L481 332Z" fill="#73c1ef" stroke="#73c1ef"></path>
    <path d="M723 334L730 177L667 270Z" fill="#78c6f0" stroke="#78c6f0"></path>
    <path d="M667 270L730 177L578 172Z" fill="#81cdf1" stroke="#81cdf1"></path>
    <path d="M673 450L723 334L603 399Z" fill="#81cdf1" stroke="#81cdf1"></path>
    <path d="M603 399L723 334L667 270Z" fill="#7ecbf1" stroke="#7ecbf1"></path>
    <path d="M267 110L297 209L380 183Z" fill="#81cdf1" stroke="#81cdf1"></path>
    <path d="M380 183L297 209L390 322Z" fill="#78c6f0" stroke="#78c6f0"></path>
    <path d="M537 450L595 450L603 399Z" fill="#6bb7ed" stroke="#6bb7ed"></path>
    <path d="M730 177L684 76L578 172Z" fill="#7bc8f0" stroke="#7bc8f0"></path>
    <path d="M639 59L511 0L461 85Z" fill="#73c1ef" stroke="#73c1ef"></path>
    <path d="M620 0L511 0L639 59Z" fill="#7ecbf1" stroke="#7ecbf1"></path>
    <path d="M297 209L284 276L390 322Z" fill="#71beef" stroke="#71beef"></path>
    <path d="M390 322L406 450L481 332Z" fill="#78c6f0" stroke="#78c6f0"></path>
    <path d="M301 376L406 450L390 322Z" fill="#7bc8f0" stroke="#7bc8f0"></path>
    <path d="M665 0L620 0L639 59Z" fill="#6cb9ee" stroke="#6cb9ee"></path>
    <path d="M284 276L301 376L390 322Z" fill="#6ebcee" stroke="#6ebcee"></path>
    <path d="M595 450L673 450L603 399Z" fill="#78c6f0" stroke="#78c6f0"></path>
    <path d="M684 76L665 0L639 59Z" fill="#6bb7ed" stroke="#6bb7ed"></path>
    <path d="M801 0L665 0L684 76Z" fill="#71beef" stroke="#71beef"></path>
    <path d="M511 0L372 0L426 57Z" fill="#78c6f0" stroke="#78c6f0"></path>
    <path d="M426 57L267 110L380 183Z" fill="#78c6f0" stroke="#78c6f0"></path>
    <path d="M323 0L267 110L426 57Z" fill="#71beef" stroke="#71beef"></path>
    <path d="M297 209L201 282L284 276Z" fill="#76c3ef" stroke="#76c3ef"></path>
    <path d="M301 376L329 450L406 450Z" fill="#73c1ef" stroke="#73c1ef"></path>
    <path d="M834 181L796 100L730 177Z" fill="#71beef" stroke="#71beef"></path>
    <path d="M730 177L796 100L684 76Z" fill="#78c6f0" stroke="#78c6f0"></path>
    <path d="M372 0L323 0L426 57Z" fill="#6bb7ed" stroke="#6bb7ed"></path>
    <path d="M838 360L835 244L723 334Z" fill="#6cb9ee" stroke="#6cb9ee"></path>
    <path d="M723 334L835 244L730 177Z" fill="#6cb9ee" stroke="#6cb9ee"></path>
    <path d="M835 244L834 181L730 177Z" fill="#6cb9ee" stroke="#6cb9ee"></path>
    <path d="M673 450L762 450L723 334Z" fill="#71beef" stroke="#71beef"></path>
    <path d="M284 276L201 282L301 376Z" fill="#7bc8f0" stroke="#7bc8f0"></path>
    <path d="M301 376L193 390L329 450Z" fill="#7ecbf1" stroke="#7ecbf1"></path>
    <path d="M162 149L201 282L297 209Z" fill="#6cb9ee" stroke="#6cb9ee"></path>
    <path d="M172 0L213 107L267 110Z" fill="#71beef" stroke="#71beef"></path>
    <path d="M267 110L213 107L297 209Z" fill="#78c6f0" stroke="#78c6f0"></path>
    <path d="M762 450L838 360L723 334Z" fill="#71beef" stroke="#71beef"></path>
    <path d="M835 244L900 218L834 181Z" fill="#73c1ef" stroke="#73c1ef"></path>
    <path d="M166 450L193 390L129 450Z" fill="#6ebcee" stroke="#6ebcee"></path>
    <path d="M201 282L193 390L301 376Z" fill="#73c1ef" stroke="#73c1ef"></path>
    <path d="M900 80L801 0L796 100Z" fill="#6bb7ed" stroke="#6bb7ed"></path>
    <path d="M796 100L801 0L684 76Z" fill="#73c1ef" stroke="#73c1ef"></path>
    <path d="M172 0L162 149L213 107Z" fill="#6ebcee" stroke="#6ebcee"></path>
    <path d="M213 107L162 149L297 209Z" fill="#7bc8f0" stroke="#7bc8f0"></path>
    <path d="M900 271L900 218L835 244Z" fill="#81cdf1" stroke="#81cdf1"></path>
    <path d="M834 181L900 80L796 100Z" fill="#6bb7ed" stroke="#6bb7ed"></path>
    <path d="M838 360L900 271L835 244Z" fill="#7bc8f0" stroke="#7bc8f0"></path>
    <path d="M900 450L900 386L838 360Z" fill="#78c6f0" stroke="#78c6f0"></path>
    <path d="M838 360L900 386L900 271Z" fill="#71beef" stroke="#71beef"></path>
    <path d="M900 218L900 80L834 181Z" fill="#71beef" stroke="#71beef"></path>
    <path d="M64 335L193 390L201 282Z" fill="#78c6f0" stroke="#78c6f0"></path>
    <path d="M193 390L166 450L329 450Z" fill="#7bc8f0" stroke="#7bc8f0"></path>
    <path d="M323 0L172 0L267 110Z" fill="#73c1ef" stroke="#73c1ef"></path>
    <path d="M98 203L98 240L201 282Z" fill="#81cdf1" stroke="#81cdf1"></path>
    <path d="M98 203L201 282L162 149Z" fill="#73c1ef" stroke="#73c1ef"></path>
    <path d="M63 69L98 203L162 149Z" fill="#7bc8f0" stroke="#7bc8f0"></path>
    <path d="M762 450L900 450L838 360Z" fill="#71beef" stroke="#71beef"></path>
    <path d="M900 80L900 0L801 0Z" fill="#69b4ed" stroke="#69b4ed"></path>
    <path d="M64 335L129 450L193 390Z" fill="#76c3ef" stroke="#76c3ef"></path>
    <path d="M0 266L64 335L98 240Z" fill="#81cdf1" stroke="#81cdf1"></path>
    <path d="M98 240L64 335L201 282Z" fill="#7ecbf1" stroke="#7ecbf1"></path>
    <path d="M172 0L63 69L162 149Z" fill="#6cb9ee" stroke="#6cb9ee"></path>
    <path d="M0 187L0 266L98 240Z" fill="#73c1ef" stroke="#73c1ef"></path>
    <path d="M172 0L60 0L63 69Z" fill="#71beef" stroke="#71beef"></path>
    <path d="M0 187L98 240L98 203Z" fill="#69b4ed" stroke="#69b4ed"></path>
    <path d="M0 187L98 203L63 69Z" fill="#6ebcee" stroke="#6ebcee"></path>
    <path d="M64 335L0 450L129 450Z" fill="#7ecbf1" stroke="#7ecbf1"></path>
    <path d="M0 53L0 187L63 69Z" fill="#78c6f0" stroke="#78c6f0"></path>
    <path d="M0 266L0 331L64 335Z" fill="#78c6f0" stroke="#78c6f0"></path>
    <path d="M60 0L0 53L63 69Z" fill="#6cb9ee" stroke="#6cb9ee"></path>
    <path d="M0 331L0 450L64 335Z" fill="#78c6f0" stroke="#78c6f0"></path>
    <path d="M60 0L0 0L0 53Z" fill="#6ebcee" stroke="#6ebcee"></path>
  </g>
</svg>